<svg xmlns="http://www.w3.org/2000/svg" viewBox="0 0 64 64" role="img" aria-label="Med-Utopia">
  <rect width="64" height="64" rx="12" fill="#1f2524"/>
  <path d="M14 18h8v22c0 6.7 3.8 10.8 10 10.8S42 46.7 42 40V18h8v22.2C50 51.3 42.9 58 32 58S14 51.3 14 40.2V18Z" fill="#f4fbf8"/>
  <path d="M20 44 31.5 33 44 21" fill="none" stroke="#0f8a82" stroke-width="4" stroke-linecap="round" stroke-linejoin="round"/>
  <circle cx="20" cy="44" r="4" fill="#b84a3a" stroke="#1f2524" stroke-width="2"/>
  <circle cx="31.5" cy="33" r="4" fill="#f4fbf8" stroke="#0f8a82" stroke-width="2.5"/>
  <circle cx="44" cy="21" r="4" fill="#c78a2c" stroke="#1f2524" stroke-width="2"/>
  <path d="M28 14h8v8h8v7h-8v8h-8v-8h-8v-7h8v-8Z" fill="#1f2524"/>
</svg>
